<mxfile host="65bd71144e">
    <diagram id="bV3-OLFXzYx6o3nfJZ8c" name="Page-1">
        <mxGraphModel dx="1593" dy="658" grid="1" gridSize="10" guides="1" tooltips="1" connect="1" arrows="1" fold="1" page="1" pageScale="1" pageWidth="850" pageHeight="1100" math="0" shadow="0">
            <root>
                <mxCell id="0"/>
                <mxCell id="1" parent="0"/>
                <mxCell id="2" value="Top conferences" style="rounded=0;whiteSpace=wrap;html=1;fontColor=#787878;strokeColor=#787878;" parent="1" vertex="1">
                    <mxGeometry x="80" y="40" width="120" height="60" as="geometry"/>
                </mxCell>
                <mxCell id="3" value="Proceedings" style="rounded=0;whiteSpace=wrap;html=1;strokeWidth=3;strokeColor=#FF0000;fontStyle=1" parent="1" vertex="1">
                    <mxGeometry x="240" y="40" width="120" height="60" as="geometry"/>
                </mxCell>
                <mxCell id="4" value="Articles" style="rounded=0;whiteSpace=wrap;html=1;fontColor=#787878;strokeColor=#787878;" parent="1" vertex="1">
                    <mxGeometry x="600" y="40" width="120" height="60" as="geometry"/>
                </mxCell>
                <mxCell id="6" value="PC Members" style="rounded=0;whiteSpace=wrap;html=1;fontColor=#787878;strokeColor=#787878;" parent="1" vertex="1">
                    <mxGeometry x="440" y="140" width="120" height="60" as="geometry"/>
                </mxCell>
                <mxCell id="7" value="Citations" style="rounded=0;whiteSpace=wrap;html=1;fontColor=#787878;strokeColor=#787878;" parent="1" vertex="1">
                    <mxGeometry x="800" y="40" width="120" height="60" as="geometry"/>
                </mxCell>
                <mxCell id="8" value="" style="endArrow=classic;html=1;exitX=1;exitY=0.5;exitDx=0;exitDy=0;entryX=0;entryY=0.5;entryDx=0;entryDy=0;fontColor=#787878;strokeColor=#787878;" parent="1" source="2" target="3" edge="1">
                    <mxGeometry width="50" height="50" relative="1" as="geometry">
                        <mxPoint x="500" y="360" as="sourcePoint"/>
                        <mxPoint x="550" y="310" as="targetPoint"/>
                    </mxGeometry>
                </mxCell>
                <mxCell id="9" value="" style="endArrow=classic;html=1;exitX=0.5;exitY=1;exitDx=0;exitDy=0;entryX=0;entryY=0.5;entryDx=0;entryDy=0;fontColor=#787878;strokeColor=#787878;" parent="1" source="3" target="6" edge="1">
                    <mxGeometry width="50" height="50" relative="1" as="geometry">
                        <mxPoint x="170" y="80" as="sourcePoint"/>
                        <mxPoint x="250" y="80" as="targetPoint"/>
                        <Array as="points">
                            <mxPoint x="300" y="170"/>
                        </Array>
                    </mxGeometry>
                </mxCell>
                <mxCell id="10" value="" style="endArrow=classic;html=1;exitX=1;exitY=0.5;exitDx=0;exitDy=0;entryX=0;entryY=0.5;entryDx=0;entryDy=0;fontColor=#787878;strokeColor=#787878;" parent="1" source="3" target="4" edge="1">
                    <mxGeometry width="50" height="50" relative="1" as="geometry">
                        <mxPoint x="310" y="110" as="sourcePoint"/>
                        <mxPoint x="310" y="170" as="targetPoint"/>
                    </mxGeometry>
                </mxCell>
                <mxCell id="11" value="" style="endArrow=classic;html=1;exitX=1;exitY=0.5;exitDx=0;exitDy=0;entryX=0;entryY=0.5;entryDx=0;entryDy=0;fontColor=#787878;strokeColor=#787878;" parent="1" source="4" target="7" edge="1">
                    <mxGeometry width="50" height="50" relative="1" as="geometry">
                        <mxPoint x="530" y="80" as="sourcePoint"/>
                        <mxPoint x="610" y="80" as="targetPoint"/>
                    </mxGeometry>
                </mxCell>
                <mxCell id="12" value="dblp_api&lt;br&gt;api_extractor.py" style="rounded=0;whiteSpace=wrap;html=1;" vertex="1" parent="1">
                    <mxGeometry x="240" y="240" width="120" height="60" as="geometry"/>
                </mxCell>
                <mxCell id="13" value="core&lt;br&gt;conferences" style="shape=parallelogram;perimeter=parallelogramPerimeter;whiteSpace=wrap;html=1;fixedSize=1;" vertex="1" parent="1">
                    <mxGeometry x="80" y="240" width="120" height="60" as="geometry"/>
                </mxCell>
                <mxCell id="14" value="" style="endArrow=classic;html=1;entryX=0;entryY=0.5;entryDx=0;entryDy=0;exitX=1;exitY=0.5;exitDx=0;exitDy=0;" edge="1" parent="1" source="13" target="12">
                    <mxGeometry width="50" height="50" relative="1" as="geometry">
                        <mxPoint x="-50" y="340" as="sourcePoint"/>
                        <mxPoint y="290" as="targetPoint"/>
                    </mxGeometry>
                </mxCell>
                <mxCell id="15" value="dblp_api&lt;br&gt;document" style="shape=parallelogram;perimeter=parallelogramPerimeter;whiteSpace=wrap;html=1;fixedSize=1;" vertex="1" parent="1">
                    <mxGeometry x="400" y="240" width="120" height="60" as="geometry"/>
                </mxCell>
                <mxCell id="16" value="dblp_api&lt;br&gt;author" style="shape=parallelogram;perimeter=parallelogramPerimeter;whiteSpace=wrap;html=1;fixedSize=1;" vertex="1" parent="1">
                    <mxGeometry x="400" y="320" width="120" height="60" as="geometry"/>
                </mxCell>
                <mxCell id="17" value="" style="endArrow=classic;html=1;exitX=1;exitY=0.5;exitDx=0;exitDy=0;entryX=0;entryY=0.5;entryDx=0;entryDy=0;" edge="1" parent="1" source="12" target="15">
                    <mxGeometry width="50" height="50" relative="1" as="geometry">
                        <mxPoint x="300" y="550" as="sourcePoint"/>
                        <mxPoint x="350" y="500" as="targetPoint"/>
                    </mxGeometry>
                </mxCell>
                <mxCell id="18" value="" style="endArrow=classic;html=1;exitX=1;exitY=0.5;exitDx=0;exitDy=0;entryX=0;entryY=0.5;entryDx=0;entryDy=0;" edge="1" parent="1" source="12" target="16">
                    <mxGeometry width="50" height="50" relative="1" as="geometry">
                        <mxPoint x="370" y="360" as="sourcePoint"/>
                        <mxPoint x="420" y="360" as="targetPoint"/>
                        <Array as="points">
                            <mxPoint x="380" y="270"/>
                            <mxPoint x="380" y="350"/>
                        </Array>
                    </mxGeometry>
                </mxCell>
                <mxCell id="19" value="" style="endArrow=none;dashed=1;html=1;strokeWidth=3;entryX=0;entryY=1;entryDx=0;entryDy=0;strokeColor=#FF0000;" edge="1" parent="1" target="3">
                    <mxGeometry width="50" height="50" relative="1" as="geometry">
                        <mxPoint x="70" y="240" as="sourcePoint"/>
                        <mxPoint x="80" y="100" as="targetPoint"/>
                    </mxGeometry>
                </mxCell>
                <mxCell id="20" value="" style="endArrow=none;dashed=1;html=1;strokeWidth=3;entryX=1;entryY=1;entryDx=0;entryDy=0;fontStyle=1;strokeColor=#FF0000;" edge="1" parent="1" target="3">
                    <mxGeometry width="50" height="50" relative="1" as="geometry">
                        <mxPoint x="530" y="240" as="sourcePoint"/>
                        <mxPoint x="90" y="110" as="targetPoint"/>
                    </mxGeometry>
                </mxCell>
            </root>
        </mxGraphModel>
    </diagram>
</mxfile>